# xmcd CD database file
#
# Track frame offsets:
#	150
#	39750
#	72825
#	110250
#	147300
#	184575
#
# Disc length: 2986 seconds
#
# Revision: 0
# Processed by: cddbd v1.4PL0 Copyright (c) Steve Scherf et al.
# Submitted via: CDex 1.50beta10
#
DISCID=480ba806
DTITLE=Shi Zhi-You - Plum Blossom
DYEAR=1999
DGENRE=New Age
TTITLE0=The Unworldly Beauty - The Wild Plum Blossom
TTITLE1=Fairy By The Moonlight - The Vermilion Plum Blossom
TTITLE2=Queen Of The Blossoms - The Green-Sepaled Plum Blossom
TTITLE3=Extreme Beauty - The Yellow Plum Blossom
TTITLE4=Fairy Of Delicacy - The Blossom Of Aged Plum Tree
TTITLE5=Twins Lying On One Sepal - The Plum Blossom Couple 
EXTD=YEAR: 1999
EXTT0=
EXTT1=
EXTT2=
EXTT3=
EXTT4=
EXTT5=
PLAYORDER=
